<?xml version="1.0" standalone="no"?>
<!DOCTYPE svg PUBLIC "-//W3C//DTD SVG 20010904//EN"
 "http://www.w3.org/TR/2001/REC-SVG-20010904/DTD/svg10.dtd">
<svg version="1.0" xmlns="http://www.w3.org/2000/svg"
 width="728.000000pt" height="728.000000pt" viewBox="0 0 728.000000 728.000000"
 preserveAspectRatio="xMidYMid meet">
<metadata>
Created by potrace 1.14, written by Peter Selinger 2001-2017
</metadata>
<g transform="translate(0.000000,728.000000) scale(0.100000,-0.100000)"
fill="#000000" stroke="none">
<path d="M0 3640 l0 -3640 3640 0 3640 0 0 3640 0 3640 -3640 0 -3640 0 0
-3640z m3970 3566 c335 -55 558 -114 865 -231 145 -55 394 -185 543 -285 83
-55 152 -104 152 -107 0 -3 -31 -39 -69 -79 -39 -40 -77 -87 -86 -103 -8 -17
-20 -31 -25 -31 -10 0 -211 87 -218 95 -3 2 5 12 16 22 12 10 24 30 27 44 6
24 2 27 -62 53 -37 16 -131 58 -208 93 -200 93 -194 90 -265 108 -36 9 -101
27 -145 40 -110 32 -406 102 -485 114 -36 6 -149 20 -252 31 -164 19 -205 20
-335 11 -82 -6 -171 -17 -198 -26 -28 -8 -62 -15 -77 -15 -25 0 -27 3 -33 58
-4 31 -15 97 -25 145 l-18 89 397 -5 c309 -3 419 -8 501 -21z m-973 -188 c17
-80 21 -120 16 -177 l-6 -73 -18 37 c-22 46 -106 145 -123 145 -6 0 -33 -20
-59 -44 -109 -103 -156 -125 -337 -151 -127 -18 -153 -30 -177 -80 -16 -34
-19 -36 -106 -50 -28 -5 -41 -13 -50 -33 -6 -15 -15 -31 -20 -37 -4 -5 -14
-19 -22 -30 -15 -20 -15 -20 -36 4 -11 14 -23 37 -26 53 -3 15 -9 25 -14 22
-5 -3 -7 1 -4 8 3 7 -13 37 -35 65 l-39 53 42 24 c62 37 259 130 362 171 158
64 216 83 400 130 99 26 187 51 195 56 30 17 36 7 57 -93z m258 -158 c0 -8
-11 -20 -25 -27 -21 -10 -26 -10 -33 3 -5 8 -6 22 -3 30 8 20 61 15 61 -6z
m-400 -232 c9 -9 -87 -46 -132 -51 -36 -3 -46 0 -68 23 -14 14 -25 28 -25 31
0 7 218 4 225 -3z m-973 -57 c29 -27 61 -63 71 -80 18 -30 18 -31 0 -31 -10 0
-41 -23 -68 -51 -28 -28 -108 -95 -180 -149 -188 -142 -288 -230 -487 -428
l-178 -176 49 -16 c27 -8 52 -18 56 -22 15 -15 -40 -30 -89 -25 -94 10 -174
-42 -191 -123 l-8 -35 21 25 c11 14 23 22 27 18 3 -3 -23 -37 -58 -75 -78 -82
-97 -118 -102 -188 -4 -54 11 -85 35 -70 5 3 10 2 10 -3 0 -20 -42 -44 -118
-66 -130 -38 -155 -64 -134 -140 7 -24 7 -36 1 -36 -6 0 -8 -8 -4 -19 3 -10 1
-37 -4 -60 -5 -22 -5 -41 -1 -41 5 0 10 5 12 12 3 9 6 9 12 0 12 -19 -23 -26
-42 -9 -18 16 -130 57 -157 57 -21 0 -20 6 19 108 44 115 60 145 169 327 210
350 317 485 627 796 135 135 294 286 353 335 98 81 282 212 299 214 4 0 31
-22 60 -49z m1008 24 c0 -7 -72 -36 -77 -31 -3 2 8 11 24 19 29 15 53 21 53
12z m-665 -15 c14 -6 5 -8 -32 -7 -29 1 -53 5 -53 10 0 10 60 8 85 -3z m3537
-167 c142 -110 487 -452 602 -598 146 -184 329 -467 406 -628 39 -80 70 -150
70 -156 0 -17 -342 -145 -420 -157 l-45 -7 22 19 c13 10 45 68 72 129 36 77
57 113 73 119 32 14 32 14 21 28 -6 7 -16 37 -23 66 -9 40 -16 52 -31 52 -10
0 -19 -4 -19 -10 0 -5 -18 -22 -40 -36 -49 -33 -63 -24 -81 49 -24 102 -58
207 -100 306 -40 96 -44 100 -68 94 -14 -3 -30 -6 -35 -7 -5 0 -16 21 -25 48
-10 28 -23 52 -30 54 -7 2 -26 -8 -42 -24 -16 -15 -30 -26 -32 -23 -39 52 -82
118 -111 174 -26 50 -69 104 -149 186 -62 64 -129 129 -150 144 -34 25 -43 27
-102 23 -49 -4 -65 -3 -65 7 0 23 165 235 182 235 5 0 59 -39 120 -87z m-2728
-25 c-26 -46 -68 -88 -81 -83 -22 8 -88 -12 -171 -51 -40 -20 -82 -36 -93 -37
-28 -2 -23 -23 12 -48 42 -30 106 -22 165 20 l44 31 -19 -38 c-18 -36 -56 -77
-139 -154 -34 -31 -41 -34 -47 -20 -3 9 -29 52 -58 95 -42 62 -56 77 -77 77
-40 -1 -130 -42 -211 -97 -41 -27 -94 -61 -119 -76 -99 -55 -200 -158 -200
-202 0 -23 51 -146 77 -185 34 -51 31 -70 -11 -70 -28 0 -38 6 -54 33 -36 58
-102 217 -102 246 0 33 42 76 162 164 208 154 333 220 530 280 219 68 372 117
377 122 10 10 22 4 15 -7z m1371 -40 c33 -12 66 -38 48 -38 -8 0 -6 -16 6 -47
35 -99 54 -184 43 -195 -8 -8 -7 -15 6 -25 9 -8 -7 -2 -37 14 -50 25 -56 33
-73 83 -10 30 -20 66 -23 78 -2 13 -9 30 -15 37 -6 8 -14 37 -17 66 -5 48 -4
52 13 45 11 -5 33 -13 49 -18z m-1464 -81 c-10 -9 -11 -8 -5 6 3 10 9 15 12
12 3 -3 0 -11 -7 -18z m228 -31 c9 -10 4 -25 -24 -66 -26 -39 -35 -47 -35 -30
0 12 -4 18 -10 15 -6 -4 -8 -11 -5 -16 4 -5 1 -9 -4 -9 -6 0 -11 -6 -11 -14 0
-7 -11 -16 -24 -18 -17 -3 -23 -1 -19 8 2 7 12 10 21 7 11 -5 14 -2 10 9 -3 8
7 34 23 58 51 76 58 81 78 56z m228 -32 c-3 -3 -12 -4 -19 -1 -8 3 -5 6 6 6
11 1 17 -2 13 -5z m2413 -244 c0 -5 -2 -10 -4 -10 -3 0 -8 5 -11 10 -3 6 -1
10 4 10 6 0 11 -4 11 -10z m34 -42 c9 -12 16 -19 16 -15 0 5 7 1 16 -7 8 -9
22 -16 30 -16 8 0 14 -4 14 -10 0 -19 -46 -10 -66 13 -37 42 -47 57 -36 57 6
0 18 -10 26 -22z m-564 -89 c0 -4 -16 -35 -35 -68 -31 -52 -40 -61 -64 -61
-35 0 -103 23 -148 51 -31 20 -33 23 -18 39 14 15 12 18 -20 36 -19 10 -35 22
-35 27 0 5 3 7 8 5 57 -30 97 -42 148 -46 57 -4 64 -2 95 26 31 28 35 29 52
15 9 -9 17 -20 17 -24z m-282 -33 c-7 -8 -15 -12 -17 -11 -5 6 10 25 20 25 5
0 4 -6 -3 -14z m-3136 -18 c8 -7 29 -40 47 -72 30 -57 31 -65 31 -175 0 -102
3 -122 25 -169 14 -30 25 -62 25 -71 0 -10 -39 -55 -88 -102 -48 -46 -99 -100
-114 -119 -30 -40 -116 -209 -147 -288 -12 -29 -47 -108 -80 -175 -176 -367
-192 -434 -147 -600 15 -53 29 -104 32 -112 5 -12 -3 -15 -43 -15 l-49 0 -12
89 c-7 48 -12 113 -12 143 0 76 41 210 111 363 62 133 151 365 190 490 20 68
25 74 141 184 138 132 153 155 138 209 -5 20 -10 98 -10 173 0 123 -2 139 -21
163 -11 14 -27 26 -36 26 -22 0 -104 -70 -96 -83 3 -5 2 -7 -4 -4 -6 4 -21 -5
-33 -18 -13 -14 -19 -25 -15 -25 5 0 -1 -7 -13 -16 -12 -8 -19 -20 -16 -26 4
-6 3 -8 -3 -5 -5 4 -25 -12 -44 -35 -19 -23 -70 -79 -114 -126 -80 -84 -190
-245 -180 -262 3 -5 0 -12 -6 -16 -8 -4 -9 -3 -5 4 4 7 5 12 2 12 -2 0 -18
-21 -35 -47 -17 -27 -37 -57 -44 -68 -8 -11 -31 -46 -51 -77 -34 -54 -56 -72
-56 -48 0 33 184 347 274 469 114 154 398 441 436 441 4 0 13 -6 22 -12z m574
-176 c-17 -16 -18 -16 -5 5 7 12 15 20 18 17 3 -2 -3 -12 -13 -22z m1666 -58
c213 -72 327 -119 515 -211 l131 -64 7 -42 c4 -23 26 -136 50 -252 23 -115 50
-253 60 -305 9 -52 19 -105 22 -117 4 -17 -8 -30 -69 -72 -40 -28 -92 -67
-115 -88 l-42 -38 -10 -103 c-6 -56 -11 -131 -11 -166 0 -63 0 -64 -30 -70
-37 -7 -139 -74 -171 -113 -13 -16 -33 -46 -44 -66 -18 -33 -18 -39 -5 -61 23
-37 334 -272 380 -288 6 -2 -8 -48 -31 -105 -37 -91 -43 -101 -60 -93 -10 6
-20 13 -22 18 -5 7 4 70 19 140 6 27 4 32 -13 32 -23 0 -164 48 -177 60 -5 5
1 6 14 3 18 -5 21 -3 15 7 -6 10 -4 12 11 6 44 -16 -23 33 -113 84 -91 52
-110 70 -144 139 -20 41 -32 29 136 142 61 41 112 76 115 79 3 3 17 11 31 17
35 15 38 36 45 333 5 193 3 270 -10 365 -19 141 -62 296 -78 274 -7 -10 -8 -9
-3 7 3 13 -2 30 -13 45 -27 34 -75 126 -96 182 -10 26 -23 46 -30 44 -17 -5
-116 -140 -116 -158 0 -12 -7 -14 -30 -11 -60 9 -219 -28 -299 -70 -69 -35
-170 -108 -130 -93 10 4 20 2 23 -3 3 -5 -14 -15 -37 -23 -30 -10 -67 -38
-126 -97 -54 -54 -87 -80 -93 -74 -15 15 -2 42 42 91 22 24 38 47 35 50 -6 5
-41 -31 -87 -89 l-19 -25 5 42 c7 51 38 103 91 157 35 35 37 39 15 32 -14 -4
-50 -9 -80 -12 -107 -8 -168 -77 -178 -202 -4 -48 -12 -78 -32 -109 -15 -23
-33 -63 -40 -88 -7 -25 -16 -45 -20 -45 -11 0 12 91 38 155 20 47 55 215 48
223 -5 5 -200 -94 -248 -126 -48 -32 -64 -60 -73 -136 -9 -71 -25 -56 -25 24
0 57 16 99 53 138 23 24 31 72 13 72 -27 0 -195 -90 -214 -115 -12 -16 -25
-26 -27 -23 -11 11 17 64 53 101 46 47 30 47 -39 1 -70 -48 -93 -69 -142 -129
l-40 -50 54 -6 54 -6 -57 -1 c-55 -2 -59 -4 -121 -62 -36 -33 -70 -74 -77 -90
-23 -55 -21 -24 4 66 13 49 31 120 40 159 23 100 65 183 122 241 72 74 316
221 580 350 128 63 235 114 238 114 3 0 65 32 138 71 199 107 201 108 228 102
14 -3 109 -34 212 -69z m-3067 6 c-28 -12 -47 -12 -40 0 3 6 18 10 33 9 24 0
25 -1 7 -9z m-55 -14 c0 -3 -4 -8 -10 -11 -5 -3 -10 -1 -10 4 0 6 5 11 10 11
6 0 10 -2 10 -4z m4794 -165 c34 -36 25 -60 -33 -88 -40 -19 -99 -95 -93 -121
2 -9 -1 -11 -9 -6 -9 5 -10 2 -6 -10 4 -9 3 -15 -2 -11 -5 3 -19 -15 -31 -39
-11 -24 -27 -49 -34 -56 -49 -40 -77 -216 -50 -307 8 -25 22 -106 33 -179 11
-73 22 -137 25 -142 5 -9 -35 -32 -54 -32 -6 0 -10 30 -10 68 0 81 -22 229
-50 336 -11 44 -20 92 -20 107 0 30 102 240 126 260 10 8 13 22 9 39 -5 23 -3
27 15 26 16 -1 25 8 34 35 7 19 21 44 32 55 10 11 28 36 39 57 24 45 42 47 79
8z m134 -151 c9 -14 33 -48 53 -76 38 -51 137 -237 176 -329 57 -134 74 -178
69 -183 -7 -7 -183 -21 -256 -21 -30 0 -49 3 -42 6 6 2 12 21 12 41 0 34 -74
263 -149 462 -47 126 -48 120 12 155 l52 31 28 -31 c16 -16 36 -41 45 -55z
m-4468 -194 c-7 -23 -32 -59 -66 -93 -51 -51 -62 -73 -79 -155 -3 -16 -31 -52
-66 -85 -93 -89 -99 -102 -99 -227 0 -156 -20 -140 -35 29 -9 92 1 115 85 196
53 52 70 76 76 106 12 66 40 116 94 168 66 64 77 85 87 175 l8 75 3 -75 c2
-41 -2 -92 -8 -114z m300 114 c-35 -33 -68 -60 -73 -60 -5 0 2 10 17 21 15 12
25 27 22 35 -3 8 0 11 10 7 9 -3 27 8 47 30 17 20 34 34 36 31 3 -3 -24 -32
-59 -64z m4640 20 c0 -33 -19 -40 -40 -15 -16 20 -5 45 20 45 16 0 20 -7 20
-30z m-941 -39 c7 -5 12 -13 10 -19 -3 -7 -14 -3 -29 8 -25 20 -10 29 19 11z
m1538 -414 c95 -328 140 -611 150 -932 13 -454 -52 -895 -189 -1277 l-20 -57
-54 75 c-98 137 -103 157 -70 272 78 271 95 351 126 567 25 175 28 512 5 618
-21 102 -33 120 -87 137 l-47 15 6 40 c3 22 12 53 20 68 8 16 12 31 10 33 -2
3 -10 -9 -17 -25 -7 -19 -17 -28 -26 -24 -8 3 -14 9 -14 15 0 5 5 6 10 3 6 -4
10 5 10 20 0 17 4 24 12 19 7 -5 9 -2 6 8 -4 8 -2 21 4 29 8 11 9 11 4 -3 -3
-10 -1 -20 4 -23 6 -4 10 -4 10 0 0 28 -53 301 -61 317 -10 19 -14 18 -63 -31
-39 -39 -57 -50 -71 -45 -17 7 -16 8 4 16 15 5 20 12 14 22 -11 18 -140 118
-192 148 -22 13 -41 25 -41 28 0 3 66 18 146 34 113 22 148 26 154 16 5 -8 16
-9 31 -5 13 5 60 14 104 21 44 6 82 12 85 13 3 0 20 -50 37 -112z m-2979 41
c62 -28 116 -81 143 -141 33 -75 34 -222 1 -288 -32 -64 -106 -136 -172 -168
-47 -22 -68 -26 -145 -26 -73 0 -98 4 -130 22 -42 22 -96 75 -134 130 -25 37
-40 151 -24 186 6 12 17 38 26 58 21 50 173 206 214 221 18 7 33 15 33 19 0
10 66 17 110 11 19 -2 54 -13 78 -24z m-1824 -78 c20 6 40 9 43 6 7 -6 -41
-26 -64 -26 -18 0 -53 28 -53 43 0 5 8 -1 18 -13 17 -21 21 -22 56 -10z m653
-16 c-3 -3 -12 -4 -19 -1 -8 3 -5 6 6 6 11 1 17 -2 13 -5z m3023 -54 c-28 -8
-35 -6 -26 8 3 6 16 7 29 4 22 -6 22 -6 -3 -12z m-5388 -15 c20 -14 41 -25 45
-25 4 0 34 -16 66 -34 l59 -34 -42 -18 c-24 -11 -48 -31 -56 -46 -8 -16 -19
-28 -24 -28 -6 0 -10 -7 -10 -15 0 -8 -4 -15 -8 -15 -5 0 -14 -12 -21 -27 -12
-27 -12 -27 23 6 20 19 38 32 40 30 3 -3 -33 -42 -80 -88 l-85 -84 -1 -116
c-4 -638 16 -968 64 -1028 7 -8 5 -17 -5 -27 -10 -11 -12 -25 -6 -58 27 -156
43 -231 60 -291 11 -38 18 -71 15 -74 -13 -13 -36 9 -46 44 -10 38 -62 318
-74 405 -6 37 -11 46 -25 45 -11 -1 -17 -7 -14 -17 3 -9 -7 -37 -21 -63 -14
-25 -26 -53 -26 -61 0 -8 -9 -20 -19 -26 -18 -9 -21 -4 -35 58 -45 202 -71
564 -64 889 3 118 7 216 10 218 3 3 29 7 59 10 53 4 79 21 79 52 0 7 13 33 30
59 16 26 34 70 39 98 13 62 30 268 24 279 -8 14 13 7 49 -18z m2326 -13 c7 -1
10 -6 7 -12 -3 -6 1 -7 9 -4 9 3 16 2 16 -3 0 -4 9 -14 21 -21 12 -8 18 -9 15
-3 -5 7 -1 8 9 5 9 -4 14 -13 11 -20 -3 -8 -2 -14 3 -14 13 0 36 -91 33 -134
-4 -65 -35 -120 -88 -157 -69 -48 -85 -55 -121 -54 -31 0 -103 47 -103 67 0 6
-14 23 -31 39 -36 34 -49 74 -49 151 0 46 3 58 16 58 8 0 12 5 9 10 -4 6 -1
18 6 26 9 12 14 12 20 2 5 -8 11 -4 20 14 6 15 24 33 40 40 23 12 102 16 157
10z m2284 -104 c47 -29 56 -45 127 -229 95 -248 173 -497 178 -569 5 -60 -13
-220 -38 -346 -10 -51 -10 -51 -74 -76 -51 -21 -62 -22 -54 -9 11 17 -8 76
-33 103 -43 47 -91 141 -95 187 -2 25 -8 70 -14 100 -11 68 -12 194 -1 187 12
-7 -2 74 -17 102 -6 12 -16 20 -22 17 -5 -4 -9 4 -9 15 0 16 -4 20 -16 16 -8
-3 -12 -2 -9 4 3 6 1 10 -6 10 -7 0 -9 3 -5 7 6 7 -90 103 -104 103 -15 0 -60
77 -74 125 -28 100 -31 91 47 137 109 63 105 58 99 141 l-5 72 44 -38 c24 -20
61 -47 81 -59z m1046 57 c67 -1 126 -6 131 -11 44 -44 160 -645 131 -677 -7
-8 -70 69 -70 86 0 5 -14 7 -31 3 -18 -3 -38 -1 -45 5 -10 8 -22 1 -49 -30
-34 -37 -38 -39 -58 -26 -26 16 -134 45 -171 45 -30 0 -35 15 -8 24 9 3 31 15
47 26 17 11 46 28 66 39 40 22 59 60 59 117 0 53 -47 268 -70 322 -19 45 -24
50 -43 43 -13 -5 -37 -37 -60 -82 l-37 -74 6 -132 c7 -130 7 -133 -14 -133
-21 0 -27 11 -52 115 -14 55 -47 118 -59 111 -4 -3 -40 -12 -80 -20 -40 -8
-86 -22 -103 -31 -31 -15 -47 -9 -48 17 0 14 67 58 153 99 78 37 91 41 114 30
23 -11 25 -10 14 3 -10 12 -6 27 26 81 l38 66 45 -8 c25 -4 100 -8 168 -8z
m-347 -18 c-10 -9 -11 -8 -5 6 3 10 9 15 12 12 3 -3 0 -11 -7 -18z m-41 -31
c0 -2 -7 -7 -16 -10 -8 -3 -12 -2 -9 4 6 10 25 14 25 6z m-3478 -148 c-6 -6
-7 0 -4 19 5 21 7 23 10 9 2 -10 0 -22 -6 -28z m-1123 -178 c36 -47 78 -96 93
-108 23 -20 28 -32 28 -71 0 -82 20 -162 62 -245 40 -80 41 -81 35 -166 -6
-80 11 -294 32 -415 69 -393 84 -465 107 -512 15 -31 34 -55 47 -59 21 -7 21
-7 2 -15 -42 -16 -60 -9 -87 37 -44 71 -83 242 -113 489 -3 28 -8 66 -11 85
-6 48 -34 359 -34 388 0 13 -4 21 -8 18 -5 -3 -7 8 -4 23 2 16 -7 56 -22 92
-25 64 -51 157 -59 215 -3 17 -16 48 -30 70 -32 51 -141 164 -157 164 -7 0
-47 -25 -88 -56 -71 -54 -75 -55 -68 -29 4 16 17 40 29 54 33 40 150 130 166
128 8 -1 44 -40 80 -87z m1960 33 c68 -71 132 -159 162 -223 6 -14 20 -41 30
-61 22 -43 24 -63 6 -78 -11 -8 -14 -5 -14 18 0 34 -57 139 -107 198 -42 49
-136 110 -136 89 0 -8 -11 -17 -24 -20 -26 -6 -73 -55 -125 -132 -51 -73 -48
-38 4 67 46 90 121 178 154 179 7 0 30 -17 50 -37z m-325 -165 c-9 -27 -6
-187 4 -202 4 -6 7 -15 7 -20 0 -5 16 -19 36 -30 81 -47 82 -49 75 -108 -7
-58 10 -195 26 -216 8 -10 14 -8 24 5 12 16 13 10 8 -38 -6 -48 -1 -72 34
-175 35 -105 64 -239 47 -223 -3 4 -26 64 -51 135 -25 71 -56 157 -70 192 -34
86 -66 245 -62 311 l3 55 -54 38 -55 38 3 112 c2 100 11 148 27 148 3 0 2 -10
-2 -22z m1059 -189 c46 -11 84 -35 74 -45 -4 -4 -13 -1 -21 5 -9 7 -50 15 -93
18 -69 4 -83 2 -123 -19 -27 -15 -51 -37 -60 -56 -12 -25 -18 -30 -28 -20 -20
20 -14 33 38 82 47 44 51 46 110 46 34 0 80 -5 103 -11z m-1996 -76 c-3 -10
-5 -4 -5 12 0 17 2 24 5 18 2 -7 2 -21 0 -30z m4236 -2 c120 -24 181 -54 287
-139 69 -56 84 -73 82 -92 -1 -14 -9 -28 -17 -33 -9 -4 -12 -14 -9 -20 4 -7 4
-9 -1 -5 -4 4 -26 -8 -47 -27 -45 -38 -97 -65 -125 -65 -10 0 -40 11 -68 23
-27 13 -55 22 -62 20 -6 -2 -14 4 -17 14 -7 19 -74 98 -85 98 -22 2 -61 17
-61 24 0 5 9 7 20 4 31 -8 23 4 -10 16 -18 6 -28 6 -25 1 4 -6 -1 -10 -10 -10
-8 0 -18 7 -21 15 -4 8 -10 15 -16 15 -5 0 -6 -4 -3 -10 3 -6 -1 -7 -10 -4 -9
4 -13 9 -10 12 3 3 -27 14 -67 23 l-73 18 -33 -35 c-33 -34 -64 -42 -92 -24
-12 7 -12 13 -1 34 24 44 113 147 135 156 40 16 239 11 339 -9z m-2213 -14
c-29 -14 -47 -31 -51 -47 -10 -37 -9 -102 2 -125 9 -19 9 -18 5 3 -3 18 0 22
21 22 33 0 78 -27 94 -57 7 -13 16 -23 21 -23 5 0 7 -4 3 -9 -3 -5 -1 -12 5
-16 5 -3 10 -14 10 -24 0 -10 9 -30 20 -44 12 -15 16 -27 10 -29 -8 -2 -8 -12
-2 -28 l10 -25 7 28 c11 41 -4 170 -41 367 -13 67 15 17 46 -84 40 -132 40
-202 0 -322 -17 -49 -42 -131 -55 -182 -14 -52 -28 -99 -31 -104 -11 -17 -61
91 -78 165 -8 36 -31 114 -50 174 -61 193 -68 255 -35 317 31 59 40 65 89 65
l45 0 -45 -22z m-812 -77 c27 -25 63 -104 88 -192 10 -38 22 -68 26 -68 7 0
13 40 23 149 3 35 13 78 23 95 16 28 23 31 74 34 56 3 56 3 63 -28 9 -41 1
-48 -20 -16 -25 37 -60 34 -82 -6 -15 -28 -18 -59 -18 -213 0 -99 6 -223 13
-275 8 -52 12 -117 10 -145 l-3 -50 -12 40 c-6 22 -39 144 -72 272 -83 313
-114 393 -153 393 -4 0 -26 -19 -48 -41 -34 -35 -40 -38 -40 -21 0 74 79 118
128 72z m-1791 -12 c-3 -8 -6 -5 -6 6 -1 11 2 17 5 13 3 -3 4 -12 1 -19z
m2218 -153 c26 -150 33 -507 10 -483 -8 8 -84 326 -99 416 -17 95 -19 140 -6
87 6 -24 8 -26 9 -7 1 26 18 30 24 5 3 -10 5 -1 6 19 1 46 22 95 32 76 3 -7
14 -58 24 -113z m-1628 93 c-3 -8 -6 -5 -6 6 -1 11 2 17 5 13 3 -3 4 -12 1
-19z m3940 6 c-3 -3 -12 -4 -19 -1 -8 3 -5 6 6 6 11 1 17 -2 13 -5z m-3135
-69 c3 -22 7 -85 9 -140 l2 -100 -31 -21 c-19 -13 -48 -22 -73 -22 -23 -1 -46
-6 -50 -13 -11 -19 -99 -16 -130 4 -15 10 -41 22 -58 27 l-31 9 25 -45 c14
-25 23 -49 20 -54 -4 -7 54 -33 78 -35 5 0 14 -8 21 -17 7 -10 18 -18 25 -18
6 0 11 -7 11 -14 0 -13 -9 -12 -53 3 -79 28 -107 44 -155 92 -40 40 -102 143
-102 169 0 16 26 12 72 -12 60 -32 206 -31 308 2 89 29 94 43 51 136 -42 89
-41 96 11 92 41 -3 43 -4 50 -43z m3328 -5 c8 -5 11 -10 5 -10 -5 0 -17 5 -25
10 -8 5 -10 10 -5 10 6 0 17 -5 25 -10z m-1397 -123 c-3 -39 -66 -158 -151
-285 -166 -245 -257 -402 -235 -402 4 0 -22 -28 -58 -62 -85 -82 -214 -151
-245 -130 -26 18 -55 77 -88 183 -47 152 -47 164 9 212 33 28 45 34 45 22 0
-10 -5 -13 -12 -9 -7 5 -9 2 -5 -9 4 -11 2 -14 -9 -10 -17 6 -19 -8 -2 -25 9
-9 9 -12 0 -12 -9 0 -9 -6 0 -27 15 -35 27 -50 24 -30 -1 9 -5 20 -9 23 -4 4
-7 12 -7 17 0 5 9 -1 19 -15 13 -15 18 -33 14 -46 -3 -13 -1 -22 6 -22 7 0 11
6 9 13 -2 6 1 14 6 17 5 3 10 -4 12 -15 2 -11 11 -25 20 -32 16 -12 17 -13 1
-13 -9 0 -17 5 -17 10 0 6 -4 10 -10 10 -16 0 -12 -22 7 -36 14 -9 21 -10 32
-1 12 10 14 9 8 -5 -3 -10 -2 -20 4 -24 6 -4 4 -13 -7 -25 -16 -18 -16 -19 -1
-13 10 3 17 1 17 -5 0 -6 -4 -11 -8 -11 -4 0 -13 -13 -19 -30 -11 -28 -10 -30
12 -30 37 0 72 17 120 57 47 39 59 65 70 148 8 60 55 159 100 212 74 88 230
302 262 360 24 44 32 69 28 84 l-7 22 33 -20 c26 -15 34 -26 32 -46z m1314
-32 c51 -26 123 -94 123 -118 0 -7 -22 -36 -48 -65 l-48 -52 -30 31 c-59 63
-229 129 -332 129 l-66 0 44 45 c25 25 58 50 75 55 16 5 75 7 130 5 80 -4 110
-10 152 -30z m244 18 c13 -16 12 -17 -3 -4 -17 13 -22 21 -14 21 2 0 10 -8 17
-17z m-5646 -109 c-9 -9 -21 -28 -26 -42 -5 -14 -12 -22 -16 -19 -9 10 17 66
36 76 23 13 26 5 6 -15z m105 -53 c13 -25 13 -78 0 -86 -10 -6 -49 67 -50 93
0 19 38 14 50 -7z m1860 -55 c-6 -8 -18 -12 -27 -9 -8 3 -19 0 -23 -7 -5 -8
-10 -9 -14 -1 -4 6 5 13 21 17 15 3 33 7 38 9 17 6 18 5 5 -9z m3284 -26 c32
-12 76 -38 98 -58 33 -29 38 -40 33 -61 -6 -24 -49 -89 -67 -102 -5 -3 -4 -18
2 -33 6 -17 6 -25 0 -21 -6 3 -10 14 -10 23 -1 13 -7 9 -25 -13 -21 -25 -27
-28 -35 -15 -5 8 -10 18 -10 21 0 3 -29 30 -65 61 -66 58 -81 64 -210 83 l-40
7 47 -29 c68 -41 114 -87 163 -162 61 -95 145 -261 131 -261 -24 0 -56 13 -56
22 0 6 -22 47 -50 93 -54 89 -104 140 -190 195 -54 35 -56 35 -160 33 -64 0
-125 -7 -155 -17 -66 -21 -66 -21 -54 17 27 84 106 177 179 209 97 43 370 47
474 8z m-679 10 c-3 -5 -11 -10 -16 -10 -6 0 -7 5 -4 10 3 6 11 10 16 10 6 0
7 -4 4 -10z m-2628 -229 c39 -21 86 -50 105 -64 115 -88 258 -97 347 -20 23
19 43 34 45 32 7 -9 26 -100 26 -126 0 -30 -49 -93 -72 -93 -7 0 -40 28 -73
61 -50 50 -64 59 -85 54 -76 -16 -90 -17 -121 -1 -64 32 -79 10 -22 -33 18
-13 29 -29 26 -37 -10 -26 -50 -14 -97 27 -59 52 -76 48 -153 -29 -73 -72 -93
-113 -138 -287 l-37 -140 6 -165 c5 -168 8 -198 17 -215 26 -46 8 -39 -45 18
-71 76 -113 154 -146 270 -19 69 -21 99 -19 239 l3 160 -30 13 c-40 16 -114
27 -114 16 0 -5 -8 -8 -17 -7 -24 1 -41 -90 -25 -137 l10 -32 1 29 c1 16 4 26
8 22 11 -10 10 -66 0 -59 -5 3 -3 -4 4 -15 16 -25 5 -40 -15 -23 -8 7 -21 9
-27 5 -7 -4 -9 -3 -5 4 3 6 -7 17 -24 26 -30 15 -31 14 -24 -7 4 -12 8 -31 10
-42 1 -11 3 -20 4 -20 5 0 12 -47 17 -105 6 -68 32 -131 34 -80 l0 25 11 -25
c6 -14 11 -28 10 -32 -1 -3 6 -12 14 -19 13 -10 17 -10 25 2 7 11 9 9 9 -8 0
-13 8 -24 20 -28 31 -10 109 -125 85 -125 -11 0 -91 43 -135 73 -69 46 -109
87 -137 141 -24 46 -24 49 -8 88 15 38 15 44 -6 105 -26 78 -22 117 22 246 37
108 64 153 112 190 56 42 362 138 528 166 3 1 38 -16 76 -38z m683 8 c0 -6 14
-43 31 -82 17 -40 36 -84 42 -99 7 -16 16 -28 20 -28 5 0 6 -4 2 -9 -3 -5 1
-27 9 -48 8 -21 17 -59 21 -85 l6 -46 71 -16 c40 -9 75 -13 79 -9 4 5 -4 69
-17 143 -26 149 -32 269 -11 236 30 -50 55 -66 102 -66 25 0 45 -5 45 -11 0
-5 5 -7 10 -4 6 4 5 -5 -2 -19 -6 -14 -17 -26 -24 -26 -14 0 -27 -28 -18 -41
3 -5 16 -9 30 -9 29 0 48 -38 41 -83 -3 -23 4 -37 36 -68 21 -22 36 -43 33
-46 -3 -4 -15 3 -26 15 -23 25 -39 30 -20 7 11 -13 10 -19 -6 -34 -11 -9 -26
-15 -33 -13 -10 3 -12 0 -8 -12 4 -10 1 -16 -9 -16 -9 0 -12 5 -8 13 5 7 2 7
-10 -2 -9 -8 -16 -10 -15 -5 4 21 -2 27 -13 13 -19 -23 -298 -4 -298 20 0 9
-16 71 -35 139 -44 157 -58 237 -50 279 5 30 25 39 25 12z m869 -57 c-4 -26
-8 -85 -9 -132 -1 -69 -3 -80 -12 -60 -6 14 -12 37 -13 52 -3 35 -44 100 -57
92 -6 -4 -14 0 -19 7 -15 23 -10 34 6 13 14 -19 14 -19 15 0 0 11 10 31 23 44
12 14 16 22 10 18 -7 -4 -13 -3 -13 2 0 15 9 18 43 14 l34 -4 -8 -46z m-2642
26 c-3 -8 -6 -5 -6 6 -1 11 2 17 5 13 3 -3 4 -12 1 -19z m2563 -3 c0 -2 -10
-10 -22 -16 -21 -11 -22 -11 -9 4 13 16 31 23 31 12z m-665 -111 c22 -23 46
-43 54 -46 12 -3 11 -8 -4 -24 -19 -19 -20 -19 -56 21 -41 45 -69 95 -68 122
0 15 3 13 17 -7 9 -14 34 -43 57 -66z m2189 0 c36 -31 66 -61 66 -66 0 -5 -10
-19 -22 -32 -40 -42 -54 -62 -94 -134 -21 -40 -42 -72 -45 -72 -3 0 -9 28 -12
61 -3 35 -11 65 -19 70 -7 5 -8 9 -3 9 22 1 -42 29 -67 30 -26 0 -28 -3 -28
-37 0 -21 -8 -59 -17 -86 -17 -46 -17 -48 4 -62 12 -8 29 -35 38 -59 l17 -44
-40 -54 c-22 -29 -51 -63 -64 -76 -23 -21 -26 -22 -39 -6 -8 10 -32 30 -54 46
-41 30 -163 137 -222 194 -39 38 -43 78 -13 117 40 51 284 189 410 232 107 37
128 34 204 -31z m-3779 16 c-3 -5 -16 -15 -28 -21 -22 -12 -22 -12 -3 10 19
21 43 30 31 11z m4239 -16 c3 -9 2 -12 -5 -8 -6 3 -17 -3 -24 -14 -17 -24 -56
-37 -48 -16 3 8 9 14 15 14 5 0 6 4 3 10 -3 6 1 7 9 4 11 -4 16 0 16 10 0 20
26 21 34 0z m-2603 -159 c1 -19 2 -48 3 -64 1 -36 -8 -31 -23 9 -5 17 -6 28
-1 25 5 -3 6 10 3 30 -4 23 -2 35 6 35 6 0 12 -16 12 -35z m-33 -6 c-3 -8 -7
-3 -11 10 -4 17 -3 21 5 13 5 -5 8 -16 6 -23z m1302 -54 c-5 -5 -23 -18 -42
-28 l-33 -18 24 20 c13 12 20 21 17 21 -4 0 -5 4 -2 8 2 4 14 8 25 8 13 0 17
-4 11 -11z m982 -82 c-10 -7 -22 -13 -28 -13 -6 0 -48 -39 -93 -86 -45 -48
-85 -83 -89 -79 -4 4 6 17 22 30 18 14 26 27 21 35 -5 9 -4 11 3 6 14 -8 84
63 75 77 -3 6 -1 7 6 3 6 -4 14 -1 17 7 3 9 19 21 35 27 23 10 29 19 30 44 l1
31 8 -35 c7 -27 5 -37 -8 -47z m-4236 29 c-18 -16 -18 -16 -6 6 6 13 14 21 18
18 3 -4 -2 -14 -12 -24z m4214 7 c0 -11 -4 -18 -10 -14 -5 3 -7 12 -3 20 7 21
13 19 13 -6z m-1895 -31 c-11 -6 -24 -17 -28 -25 -10 -16 -27 -17 -27 -2 0 17
31 38 55 38 l20 0 -20 -11z m-2722 -55 c3 -27 9 -62 13 -80 l6 -31 -58 -12
c-71 -15 -97 -27 -88 -42 4 -6 3 -8 -4 -4 -6 3 -29 -15 -51 -41 -39 -46 -41
-47 -41 -21 0 17 -8 31 -21 38 -31 17 -79 99 -79 135 l0 32 128 23 c70 12 138
29 152 36 36 19 37 19 43 -33z m3833 -35 c44 -35 111 -90 151 -123 39 -33 95
-80 124 -104 30 -23 66 -61 82 -84 27 -40 35 -63 18 -53 -10 7 -74 -86 -86
-124 -4 -14 -23 -56 -42 -93 -52 -104 -96 -229 -83 -237 6 -4 8 -14 4 -24 -9
-23 -24 -2 -24 35 0 14 -13 65 -30 114 -35 105 -60 218 -60 276 0 26 -7 49
-19 63 -11 11 -35 39 -54 61 l-35 40 -26 -24 c-42 -40 -69 -108 -62 -160 3
-25 10 -49 16 -55 5 -5 7 -23 4 -40 -3 -23 -2 -26 4 -12 7 15 10 17 17 6 5 -9
0 -20 -15 -32 -22 -18 -22 -20 -7 -35 19 -20 35 -10 18 11 -9 11 -8 15 4 19 8
4 14 3 14 -1 -4 -25 3 -52 11 -47 11 7 14 -77 4 -88 -4 -4 -34 19 -68 51 -34
31 -93 79 -131 106 -39 27 -83 60 -98 73 -38 31 -51 29 -44 -6 6 -29 6 -29
-23 -19 -36 12 -70 52 -70 83 0 38 42 101 132 197 47 51 108 117 134 147 46
54 142 141 154 141 4 0 42 -28 86 -62z m669 13 c-3 -6 -11 -11 -17 -11 -6 0
-6 6 2 15 14 17 26 13 15 -4z m-1045 -25 c0 -2 -8 -10 -17 -17 -16 -13 -17
-12 -4 4 13 16 21 21 21 13z m-770 -26 c0 -5 -6 -10 -14 -10 -8 0 -18 5 -21
10 -3 6 3 10 14 10 12 0 21 -4 21 -10z m47 -6 c-3 -3 -12 -4 -19 -1 -8 3 -5 6
6 6 11 1 17 -2 13 -5z m-323 -114 c4 -78 3 -83 -9 -55 -16 35 -20 164 -5 149
5 -5 12 -48 14 -94z m937 67 c-10 -9 -11 -8 -5 6 3 10 9 15 12 12 3 -3 0 -11
-7 -18z m-1744 -29 c-3 -8 -6 -5 -6 6 -1 11 2 17 5 13 3 -3 4 -12 1 -19z
m4307 -20 c18 -51 -4 -74 -121 -129 -59 -27 -116 -48 -127 -47 -18 3 -17 5 7
34 14 17 29 42 32 57 8 31 40 56 117 92 63 30 79 29 92 -7z m-2594 18 c0 -2
-8 -10 -17 -17 -16 -13 -17 -12 -4 4 13 16 21 21 21 13z m-255 -36 c-3 -5 -13
-10 -21 -10 -8 0 -14 -5 -14 -12 0 -6 -3 -8 -7 -4 -5 4 1 14 11 22 23 16 40
19 31 4z m1538 -99 c32 -132 18 -178 -53 -172 -11 1 -15 13 -13 54 1 55 32
187 43 187 4 0 14 -31 23 -69z m-2976 37 c-3 -8 -6 -5 -6 6 -1 11 2 17 5 13 3
-3 4 -12 1 -19z m1656 -3 c-3 -9 -8 -14 -10 -11 -3 3 -2 9 2 15 9 16 15 13 8
-4z m2148 -49 c45 -28 98 -71 118 -95 l36 -44 -142 7 c-118 5 -142 4 -137 -7
3 -8 -11 -35 -30 -61 -20 -25 -36 -50 -36 -55 0 -5 -6 -16 -13 -23 -7 -7 -31
-36 -54 -65 -122 -155 -328 -374 -440 -467 l-32 -27 -34 58 c-19 32 -32 63
-30 68 2 6 42 41 89 80 188 153 392 387 498 570 68 117 73 123 100 118 14 -3
62 -28 107 -57z m-2216 7 c-20 -47 -13 -53 15 -13 42 59 31 22 -15 -49 -35
-54 -51 -71 -68 -70 -18 0 -19 2 -5 7 26 11 56 55 56 82 0 30 5 51 15 68 16
25 17 11 2 -25z m-2250 -3 c-3 -5 -12 -10 -18 -10 -7 0 -6 4 3 10 19 12 23 12
15 0z m-1127 -115 c2 -37 -1 -72 -7 -78 -10 -10 -13 -1 -25 69 -3 18 -8 43
-12 58 -5 23 -4 26 17 23 22 -4 24 -9 27 -72z m1809 -7 c-2 -18 -4 -6 -4 27 0
33 2 48 4 33 2 -15 2 -42 0 -60z m-1377 -94 c75 -153 207 -314 328 -401 l64
-46 -48 -45 -47 -46 -28 32 c-16 18 -29 30 -29 27 0 -3 -14 10 -31 30 -17 19
-35 35 -40 35 -13 0 -70 58 -104 105 -26 36 -26 38 -5 20 13 -11 35 -33 48
-48 14 -15 27 -26 30 -23 3 3 -10 20 -27 38 -18 18 -49 54 -68 80 -32 41 -38
45 -48 31 -11 -15 -13 -15 -19 5 -4 12 -12 22 -18 22 -6 0 -9 2 -6 5 6 7 -21
41 -74 94 -76 75 -98 85 -148 71 -17 -5 -30 -7 -30 -6 0 2 5 17 11 33 11 32
37 43 101 43 16 0 50 11 76 25 26 14 50 25 53 25 4 0 30 -48 59 -106z m2578
99 c-10 -2 -28 -2 -40 0 -13 2 -5 4 17 4 22 1 32 -1 23 -4z m85 0 c-13 -2 -33
-2 -45 0 -13 2 -3 4 22 4 25 0 35 -2 23 -4z m184 1 c-3 -3 -12 -4 -19 -1 -8 3
-5 6 6 6 11 1 17 -2 13 -5z m-483 -11 c-11 -2 -40 -24 -64 -48 -41 -42 -78
-64 -50 -30 10 13 9 15 -9 15 -12 0 -19 -4 -16 -10 3 -5 2 -10 -4 -10 -25 0
-19 21 8 26 17 4 36 13 42 20 6 8 16 11 21 8 5 -3 16 3 24 15 10 13 25 21 42
20 21 -1 22 -3 6 -6z m2911 -51 c-33 -28 -144 -111 -163 -121 -20 -10 -22 -9
-22 11 0 13 5 40 10 60 9 33 15 38 48 43 20 4 44 8 52 10 33 6 83 5 75 -3z
m-3886 -96 c2 -60 -6 -39 -12 34 -3 41 -2 54 3 35 4 -16 8 -48 9 -69z m1670
-68 c77 -57 112 -88 209 -180 76 -73 82 -82 82 -118 0 -22 -4 -40 -10 -40 -5
0 -10 4 -10 9 0 5 -8 12 -18 15 -10 4 -37 24 -60 46 -23 23 -42 35 -42 28 -1
-8 -5 -7 -14 4 -7 10 -15 15 -18 12 -3 -3 -23 5 -44 17 -94 53 -128 69 -149
69 -32 0 -36 9 -20 41 8 15 15 53 15 84 0 35 4 55 12 55 6 0 36 -19 67 -42z
m2057 17 c-23 -17 -36 -19 -36 -6 0 5 8 12 18 14 32 9 37 6 18 -8z m-5095
-127 c11 -21 11 -22 -4 -9 -10 7 -17 17 -17 22 0 15 9 10 21 -13z m1366 -20
c-3 -8 -6 -5 -6 6 -1 11 2 17 5 13 3 -3 4 -12 1 -19z m-557 -89 c47 -34 109
-83 137 -108 50 -44 53 -48 53 -96 1 -27 5 -69 9 -92 5 -24 5 -43 1 -43 -10 0
-214 124 -260 157 -19 14 -41 33 -47 41 -23 28 -12 232 11 213 6 -4 49 -37 96
-72z m477 65 c-3 -3 -12 -4 -19 -1 -8 3 -5 6 6 6 11 1 17 -2 13 -5z m73 -13
c0 -4 -13 -6 -30 -3 -16 2 -28 8 -25 12 5 9 55 1 55 -9z m2372 -23 c-7 -7 -12
-8 -12 -2 0 14 12 26 19 19 2 -3 -1 -11 -7 -17z m-1437 -34 c44 -22 133 -75
197 -118 113 -75 117 -79 103 -100 -8 -11 -40 -69 -72 -127 -58 -106 -68 -115
-100 -84 -7 7 -9 16 -5 20 4 5 1 5 -6 1 -7 -4 -25 -5 -40 -1 -20 5 -23 8 -11
16 12 7 11 9 -3 9 -10 0 -18 5 -18 11 0 6 -9 8 -20 4 -12 -4 -26 0 -36 9 -18
18 -34 21 -34 5 0 -6 -9 -8 -20 -4 -15 5 -18 3 -14 -9 16 -42 -42 4 -100 79
l-29 38 -18 -22 c-21 -25 -71 -174 -94 -281 -28 -123 -29 -125 -56 -122 -33 5
-257 60 -296 73 l-32 10 34 67 c18 37 47 112 63 167 17 55 48 145 69 200 38
97 40 100 88 124 28 14 86 38 130 53 67 24 93 28 160 26 70 -3 90 -8 160 -44z
m627 -15 c29 -22 111 -69 182 -104 122 -59 196 -111 196 -137 0 -7 -4 -7 -12
-1 -7 6 -24 13 -38 16 -24 6 -27 2 -48 -51 -12 -31 -29 -84 -38 -117 -9 -33
-23 -67 -30 -75 -15 -15 -81 -19 -322 -20 l-103 0 3 -95 3 -94 -50 -6 c-27 -3
-104 -10 -170 -16 l-119 -11 -27 33 -27 33 -16 -32 c-9 -18 -23 -32 -30 -32
-11 0 -10 13 4 64 19 66 55 156 64 156 24 0 36 -16 36 -50 0 -58 8 -70 45 -70
27 0 41 8 69 42 79 91 242 356 320 518 36 74 45 90 52 90 2 0 28 -18 56 -41z
m-1849 -41 c8 -13 20 -45 28 -73 11 -44 14 -47 19 -25 6 22 8 19 14 -18 5 -24
6 -46 3 -49 -3 -2 1 -22 8 -43 7 -21 10 -42 7 -46 -4 -4 1 -4 12 0 14 5 17 3
11 -11 -8 -22 -13 -41 -8 -30 3 4 11 7 19 7 8 0 14 8 15 18 0 15 1 15 8 -2 4
-10 27 -27 52 -37 24 -9 43 -22 42 -28 -2 -7 5 -7 23 -1 33 13 37 13 28 -2 -5
-7 -2 -9 8 -5 11 4 18 -2 22 -19 4 -13 11 -24 17 -24 6 0 9 7 6 15 -9 22 10
28 22 8 10 -17 12 -17 28 3 10 12 24 30 30 40 10 14 13 15 12 4 -1 -8 -1 -24
0 -35 1 -18 3 -18 11 -3 6 9 21 54 34 99 22 77 23 84 8 97 -15 11 -14 12 6 2
12 -6 22 -7 22 -1 0 5 -7 12 -16 15 -9 4 -14 9 -11 13 4 3 13 0 22 -7 12 -10
15 -10 15 0 0 7 -8 19 -17 27 -16 13 -16 13 5 3 27 -13 27 -15 3 -76 -11 -27
-36 -101 -56 -164 -19 -63 -39 -121 -44 -129 -7 -11 -20 -9 -72 12 -35 14
-121 44 -190 67 -115 37 -128 44 -143 73 -49 98 -68 347 -26 347 5 0 16 -10
23 -22z m2875 -97 c-6 -2 -6 -6 1 -11 8 -4 -1 -16 -25 -35 -35 -27 -36 -27
-23 -4 6 13 18 29 25 37 7 7 10 20 7 29 -6 15 -5 16 9 3 9 -9 12 -17 6 -19z
m-3708 -51 c0 -5 -2 -10 -4 -10 -3 0 -8 5 -11 10 -3 6 -1 10 4 10 6 0 11 -4
11 -10z m1307 -52 c-3 -8 -6 -5 -6 6 -1 11 2 17 5 13 3 -3 4 -12 1 -19z m-767
-197 c146 -86 387 -203 510 -248 52 -19 98 -38 103 -42 4 -4 -4 -18 -18 -31
l-24 -23 -121 13 c-66 8 -120 18 -120 23 0 5 -7 6 -16 3 -10 -4 -13 -2 -8 6 5
8 2 9 -10 5 -9 -4 -15 -3 -12 2 8 12 -52 53 -66 45 -6 -4 -8 -3 -5 3 8 12 -20
26 -34 18 -5 -4 -6 1 -3 10 5 11 2 14 -10 9 -12 -5 -15 -2 -10 9 4 12 1 14
-15 10 -12 -3 -18 -10 -14 -19 3 -9 -14 -3 -46 16 -29 16 -57 30 -64 30 -7 0
-6 4 3 10 8 5 11 10 5 10 -5 0 -4 4 4 9 10 6 1 11 -30 17 -24 4 -48 7 -52 6
-4 -1 -17 3 -28 9 -22 11 -79 125 -79 156 0 15 -3 14 -16 -5 -19 -28 -56 -28
-99 -2 l-33 21 21 63 22 63 75 -65 c41 -35 127 -94 190 -131z m3474 144 c4
-14 2 -34 -4 -45 -6 -11 -7 -20 -3 -20 4 0 1 -5 -7 -10 -13 -9 -13 -11 0 -20
8 -6 32 -15 53 -20 20 -6 37 -15 37 -19 0 -5 -28 -14 -62 -20 -63 -13 -112
-36 -198 -95 -25 -17 -48 -31 -52 -32 -5 -1 -12 -2 -17 -3 -10 -1 -111 -68
-126 -84 -14 -14 13 1 50 28 17 12 39 25 50 29 24 9 23 7 -44 -42 -52 -40 -88
-46 -76 -13 4 10 -2 8 -18 -7 l-25 -23 -22 31 c-19 26 -27 30 -49 25 -33 -8
-131 -72 -131 -85 0 -13 17 -13 25 0 4 6 11 7 17 4 7 -4 8 -2 4 4 -4 7 -3 12
3 12 5 0 12 -6 15 -12 4 -9 10 -6 22 10 9 12 22 22 28 22 6 0 4 -5 -4 -10 -11
-7 -4 -9 25 -9 22 1 32 3 23 6 -10 2 -18 9 -18 14 0 11 45 5 46 -7 1 -5 5 -19
9 -32 l8 -23 16 23 c9 13 15 26 14 30 -2 4 4 5 12 2 20 -8 19 -13 -11 -40 -30
-29 -66 -33 -58 -6 4 13 3 14 -4 4 -5 -8 -25 -13 -48 -12 -66 3 -71 1 -93 -35
l-20 -35 -80 0 c-72 0 -80 2 -95 24 -26 40 -23 45 34 69 31 13 96 46 146 75
50 28 114 58 144 65 34 9 73 30 109 58 31 25 85 65 121 89 36 24 101 70 144
102 44 32 85 58 92 58 6 0 15 -11 18 -25z m-2799 -95 c3 -5 2 -10 -4 -10 -5 0
-13 5 -16 10 -3 6 -2 10 4 10 5 0 13 -4 16 -10z m1984 -82 c17 -23 31 -45 31
-49 0 -7 -59 -26 -134 -45 -29 -7 -29 -7 -23 32 4 27 17 49 42 72 19 17 39 32
44 32 5 0 23 -19 40 -42z m-109 -365 c47 -76 45 -79 -67 -87 -54 -4 -174 -20
-268 -36 -93 -16 -192 -32 -220 -36 l-50 -7 90 -29 c54 -18 113 -30 148 -31
31 0 57 -2 57 -3 0 -6 -118 -64 -129 -64 -5 0 -11 8 -14 19 -6 25 -125 65
-198 65 -76 1 -148 -33 -180 -85 -28 -45 -43 -53 -71 -38 -31 17 -30 6 2 -37
30 -42 54 -120 39 -129 -4 -3 -29 21 -56 54 -36 45 -51 57 -60 49 -18 -15 -17
5 8 115 11 50 22 114 25 142 3 27 7 51 9 53 2 2 73 10 157 18 248 23 389 42
550 74 84 17 154 33 157 35 16 17 44 0 71 -42z m-1555 3 c66 -15 202 -34 303
-43 l182 -17 0 -26 c0 -14 -3 -35 -6 -48 -6 -21 -11 -23 -55 -19 -37 4 -51 1
-57 -10 -13 -22 -203 -8 -200 15 4 23 -58 38 -192 47 -63 4 -124 12 -135 18
-11 6 -40 19 -65 27 -55 20 -57 38 -6 55 21 8 44 19 50 25 12 12 10 13 181
-24z m-262 -75 c3 -14 0 -17 -14 -14 -11 3 -19 10 -19 15 0 5 5 6 12 2 8 -5 9
-2 5 10 -4 9 -3 15 2 12 5 -3 11 -14 14 -25z m37 -21 c0 -5 -2 -10 -4 -10 -3
0 -8 5 -11 10 -3 6 -1 10 4 10 6 0 11 -4 11 -10z m833 -379 c20 -12 37 -24 37
-26 0 -1 -20 5 -45 14 -33 12 -45 21 -45 36 0 11 3 15 8 9 4 -5 24 -20 45 -33z"/>
<path d="M2688 6903 c7 -3 16 -2 19 1 4 3 -2 6 -13 5 -11 0 -14 -3 -6 -6z"/>
<path d="M4441 6124 c9 -3 20 -19 23 -36 3 -17 8 -29 11 -27 11 12 -13 64 -31
66 -13 1 -14 0 -3 -3z"/>
<path d="M4430 6100 c0 -5 5 -10 11 -10 5 0 7 5 4 10 -3 6 -8 10 -11 10 -2 0
-4 -4 -4 -10z"/>
<path d="M7040 3050 c0 -5 5 -10 10 -10 6 0 10 5 10 10 0 6 -4 10 -10 10 -5 0
-10 -4 -10 -10z"/>
<path d="M225 4073 c4 -10 18 -49 32 -88 24 -66 43 -102 43 -79 0 6 16 36 35
69 20 32 33 60 30 63 -3 3 -5 0 -5 -6 0 -17 -25 -15 -41 4 -12 15 -81 54 -95
54 -3 0 -3 -8 1 -17z"/>
<path d="M352 3140 c0 -14 2 -19 5 -12 2 6 2 18 0 25 -3 6 -5 1 -5 -13z"/>
<path d="M3840 3498 c0 -8 16 -32 36 -54 19 -21 43 -51 52 -66 15 -26 32 -37
32 -22 0 10 -86 128 -104 143 -13 11 -16 11 -16 -1z"/>
<path d="M3827 2775 c8 -41 18 -50 18 -15 0 15 -3 26 -7 24 -3 -2 -9 2 -12 8
-3 7 -3 0 1 -17z"/>
<path d="M2192 2500 c0 -14 2 -19 5 -12 2 6 2 18 0 25 -3 6 -5 1 -5 -13z"/>
<path d="M2182 2430 c0 -14 2 -19 5 -12 2 6 2 18 0 25 -3 6 -5 1 -5 -13z"/>
<path d="M2048 2429 c-3 -8 -9 -47 -12 -85 l-6 -69 15 50 c15 48 17 138 3 104z"/>
<path d="M2172 2360 c0 -14 2 -19 5 -12 2 6 2 18 0 25 -3 6 -5 1 -5 -13z"/>
<path d="M2116 2303 c-7 -24 -9 -67 -6 -128 2 -38 5 -28 11 44 8 92 7 122 -5
84z"/>
<path d="M3530 2571 c0 -5 5 -13 10 -16 6 -3 10 -2 10 4 0 5 -4 13 -10 16 -5
3 -10 2 -10 -4z"/>
<path d="M3530 2520 c0 -5 5 -10 10 -10 6 0 10 5 10 10 0 6 -4 10 -10 10 -5 0
-10 -4 -10 -10z"/>
<path d="M4624 1721 c20 -22 26 -25 26 -13 0 4 -10 13 -22 21 -23 14 -23 14
-4 -8z"/>
<path d="M3018 1208 c-40 -61 -61 -98 -54 -98 2 0 19 24 37 53 17 28 38 62 47
75 8 12 12 22 10 22 -3 0 -21 -24 -40 -52z"/>
<path d="M3058 1183 c-23 -44 -35 -79 -31 -89 4 -12 3 -15 -5 -10 -7 4 -12 1
-12 -9 0 -12 6 -15 20 -10 13 4 20 2 20 -7 1 -8 6 -6 15 6 14 19 15 18 24 -5
7 -21 10 -17 16 31 4 30 3 80 -2 110 l-8 55 -37 -72z"/>
<path d="M2935 1068 l-16 -33 21 24 c11 13 20 27 20 32 0 18 -10 8 -25 -23z"/>
<path d="M3798 1033 c7 -3 16 -2 19 1 4 3 -2 6 -13 5 -11 0 -14 -3 -6 -6z"/>
<path d="M2661 1163 c-1 -6 -4 -20 -7 -30 -5 -17 -5 -17 6 0 6 10 9 23 6 30
-3 9 -5 9 -5 0z"/>
<path d="M2666 1113 c-6 -14 -5 -15 5 -6 7 7 10 15 7 18 -3 3 -9 -2 -12 -12z"/>
</g>
</svg>
